<svg xmlns="http://www.w3.org/2000/svg" fill="#fff" viewBox="0 0 32 40" x="0px" y="0px"><g><path d="M12.5,7.76a2,2,0,0,0-2,2,.5.5,0,0,0,1,0,1,1,0,1,1,1.59.81,2.52,2.52,0,0,0-1.09,2v.19a.5.5,0,0,0,1,0v-.19a1.53,1.53,0,0,1,.68-1.19,2,2,0,0,0,.82-1.62A2,2,0,0,0,12.5,7.76Z"/><path d="M12.5,13.94a.6.6,0,1,0,.6.6A.6.6,0,0,0,12.5,13.94Z"/><path d="M16.9,19.85a.65.65,0,1,0,.65.65A.65.65,0,0,0,16.9,19.85Z"/><path d="M19.5,19.85a.65.65,0,1,0,.65.65A.65.65,0,0,0,19.5,19.85Z"/><path d="M22.1,19.85a.65.65,0,1,0,.65.65A.65.65,0,0,0,22.1,19.85Z"/><path d="M27.8,27.1l-2.49-1.87A7.48,7.48,0,0,0,19.83,13,7.69,7.69,0,0,0,20,11.5,7.5,7.5,0,1,0,6.69,16.23L4.2,18.1a.5.5,0,0,0-.17.56A.49.49,0,0,0,4.5,19h7.65A7.41,7.41,0,0,0,12,20.5,7.5,7.5,0,0,0,19.5,28h8a.49.49,0,0,0,.47-.34A.5.5,0,0,0,27.8,27.1ZM6,18l1.72-1.29a.53.53,0,0,0,.2-.36A.49.49,0,0,0,7.78,16,6.5,6.5,0,1,1,19,11.5,7.13,7.13,0,0,1,18.81,13a7.5,7.5,0,0,0-6.37,5Zm13.5,9a6.5,6.5,0,0,1-.27-13h.27a6.49,6.49,0,0,1,4.72,11,.52.52,0,0,0-.14.39.49.49,0,0,0,.2.36L26,27Z" /></g></svg>