<svg xmlns="http://www.w3.org/2000/svg" version="1.1" viewBox="-5.0 -10.0 110.0 135.0">
 <path d="m69.07 74.719c1.8281-0.57031 2.9688-2.3906 2.6797-4.2852-0.28906-1.8984-1.918-3.2969-3.8359-3.2969-1.918 0-3.5469 1.3984-3.8359 3.2969-0.28906 1.8945 0.85156 3.7148 2.6836 4.2852v9.1602h-11.551v2.3203h12.711c0.3125 0 0.61328-0.125 0.82812-0.35547 0.21875-0.22656 0.33203-0.53125 0.32031-0.84375zm-2.3086-49.438v-9.1602h-11.551v-2.3203h12.711c0.3125 0 0.61328 0.125 0.82812 0.35547 0.21875 0.22656 0.33203 0.53125 0.32031 0.84375v10.281c1.8281 0.57031 2.9688 2.3906 2.6797 4.2852-0.28906 1.8984-1.918 3.2969-3.8359 3.2969-1.918 0-3.5469-1.3984-3.8359-3.2969-0.28906-1.8945 0.85156-3.7148 2.6836-4.2852zm-11.551 14.84v2.3203h19.188c0.3125-0.003906 0.61328-0.12891 0.83203-0.35156l8.5312-8.5312c0.21484-0.21484 0.33594-0.50391 0.33984-0.80859v-8.1797c1.8203-0.57422 2.9531-2.3906 2.6641-4.2773-0.28906-1.8906-1.9141-3.2852-3.8242-3.2852-1.9141 0-3.5352 1.3945-3.8281 3.2852-0.28906 1.8867 0.84375 3.7031 2.668 4.2773v7.6992l-7.8516 7.8516zm0 8.7188h30.641c0.57031-1.8242 2.3867-2.9531 4.2773-2.6641 1.8867 0.28906 3.2812 1.9141 3.2812 3.8242s-1.3945 3.5352-3.2812 3.8242c-1.8906 0.28906-3.707-0.83984-4.2773-2.6641h-30.641zm0 8.7188h19.188c0.3125 0.003906 0.61328 0.12891 0.83203 0.35156l8.5312 8.5312c0.21484 0.21484 0.33594 0.50391 0.33984 0.80859v8.1797c1.8203 0.57422 2.9531 2.3906 2.6641 4.2773-0.28906 1.8906-1.9141 3.2852-3.8242 3.2852-1.9141 0-3.5352-1.3945-3.8281-3.2852-0.28906-1.8867 0.84375-3.7031 2.668-4.2773v-7.6992l-7.8516-7.8516h-18.719zm-2.8906 38.75h-3.3203c-1.4375 0.011718-2.6875-0.98438-3-2.3867l-1.5586-6.7812c-0.23438-1.0859-1.043-1.957-2.1133-2.2617-2.3125-0.69141-4.5508-1.6211-6.6797-2.7695-0.96875-0.53906-2.1562-0.5-3.0898 0.10156l-5.8984 3.6992c-1.207 0.79297-2.8086 0.61328-3.8086-0.42969-1.8203-1.8203-3.6406-3.6484-5.4688-5.4688h-0.003906c-1.0039-1.0273-1.1602-2.6094-0.37891-3.8125l3.6992-5.8984c0.60156-0.93359 0.64062-2.1211 0.10156-3.0898-1.1523-2.1289-2.0898-4.3672-2.8008-6.6797-0.30469-1.0664-1.168-1.875-2.25-2.1094l-6.75-1.5508c-1.4023-0.31641-2.3906-1.5664-2.3789-3v-7.7422c-0.011719-1.4336 0.97656-2.6836 2.3789-3l6.7891-1.5508c1.0664-0.24609 1.9141-1.0547 2.2109-2.1094 0.69922-2.3125 1.6289-4.5469 2.7695-6.6797 0.54297-0.96875 0.50391-2.1562-0.097656-3.0898l-3.6719-5.8984c-0.76953-1.207-0.59766-2.7852 0.41016-3.8008 1.8281-1.8203 3.6484-3.6484 5.4688-5.4688 1-1.043 2.6016-1.2227 3.8125-0.42969l5.8984 3.6992c0.93359 0.60156 2.1211 0.64062 3.0898 0.097657 2.1289-1.1406 4.3672-2.0703 6.6797-2.7695 1.0664-0.30469 1.8789-1.1719 2.1094-2.2578l1.5312-6.793c0.3125-1.4023 1.5625-2.3984 3-2.3867h3.2891c0.31641 0.003906 0.57031 0.26172 0.57031 0.57812v22c-8.4922 0-16.34 4.5312-20.586 11.887-4.2461 7.3516-4.2461 16.414 0 23.77 4.2461 7.3555 12.094 11.883 20.586 11.883v22c0 0.31641-0.25391 0.57422-0.57031 0.58203zm0.57031-30.641v-31.34c-5.5977 0-10.773 2.9883-13.57 7.8359-2.8008 4.8477-2.8008 10.824 0 15.672 2.7969 4.8477 7.9727 7.8359 13.57 7.8359z" fill-rule="evenodd" fill="#fff"/>
</svg>