<svg xmlns="http://www.w3.org/2000/svg" version="1.1" viewBox="-5.0 -10.0 110.0 135.0">
    <path d="m52.844 19.539h4.5664c0.56641 0 1.0273 0.46094 1.0312 1.0312v1.2422c0.67969 0.20703 1.3398 0.48047 1.9688 0.81641l0.87891-0.87891c0.40625-0.40234 1.0547-0.40234 1.457 0l3.2305 3.2305c0.40234 0.40234 0.40234 1.0547 0 1.457l-0.87891 0.87891c0.33594 0.62891 0.60938 1.2891 0.81641 1.9688h1.2422c0.57031 0.003906 1.0312 0.46484 1.0312 1.0312v4.5664c0 0.57031-0.46094 1.0312-1.0312 1.0312h-1.2422c-0.20703 0.68359-0.48047 1.3438-0.81641 1.9727l0.87891 0.87891c0.40234 0.40234 0.40234 1.0547 0 1.457l-3.2305 3.2266c-0.40234 0.40234-1.0508 0.40234-1.457 0l-0.87891-0.87891c-0.62891 0.33594-1.2891 0.60938-1.9688 0.82031v1.2422c-0.003906 0.56641-0.46484 1.0273-1.0312 1.0273h-4.5664c-0.57031 0-1.0312-0.46094-1.0312-1.0273v-1.2422c-0.68359-0.21094-1.3438-0.48438-1.9727-0.82031l-0.87891 0.87891c-0.40234 0.40234-1.0547 0.40234-1.457 0l-3.2266-3.2266c-0.40234-0.40234-0.40234-1.0547 0-1.457l0.87891-0.87891c-0.33594-0.62891-0.60938-1.2891-0.81641-1.9727h-1.2383c-0.57031 0-1.0312-0.46094-1.0312-1.0312v-4.5664c0-0.56641 0.46094-1.0273 1.0312-1.0312h1.2422c0.20703-0.67969 0.48047-1.3398 0.81641-1.9688l-0.87891-0.87891c-0.40234-0.40234-0.40234-1.0547 0-1.457l3.2266-3.2266v-0.003906c0.40234-0.40234 1.0547-0.40234 1.457 0l0.87891 0.87891c0.62891-0.33594 1.293-0.60938 1.9727-0.81641v-1.2422c0-0.57031 0.46094-1.0312 1.0312-1.0312zm-8.957 64.344c-0.54688-0.11719-0.89844-0.64844-0.79297-1.1992 0.10156-0.55078 0.62891-0.91406 1.1797-0.82031l15.055 2.8984c1.7812 0.30078 3.5547-0.57031 4.4102-2.1602 1.4141-2.5938 0.49219-6.4883-3.3398-6.9492l-10.355-1.2422c-0.19531-0.023437-0.37891-0.10156-0.53125-0.22266-7.5781-6.207-15.746-8.2695-24.707-4.625 0.86328 4.6719 1.7266 9.3398 2.6016 14.008 3.4922 1.0664 7.5 2.5664 12.133 4.3008 3.1094 1.1602 6.5 2.4336 10.387 3.8047 10.457 3.6992 18.883-1.3398 30.859-8.5 2.0117-1.1992 4.1211-2.4648 6.2852-3.7148 3.7109-2.1445 0.90625-8.5391-3.9766-6.1328l-16.828 8.2773c-0.14062 0.69141-0.38672 1.3555-0.72266 1.9766-1.2461 2.3516-3.8516 3.6484-6.4805 3.2188-0.023438 0-0.050781-0.007812-0.074219-0.011719zm-21.91-18.383c1.3047 7.0547 2.6133 14.109 3.918 21.164-1.8398 0.20703-3.6914 0.29688-5.543 0.26953-1.9883-0.019532-3.8086-0.0625-3.8789-0.12891 0-0.023438-0.011718-0.050782-0.015625-0.074219h-0.003906c-0.57812-1.8906-1.2773-3.7383-2.0977-5.5352-1.6836-4.0273-3.7461-8.9609-3.5508-9.0781zm2.4492 2c4.0859-1.6719 8.5547-2.1836 12.91-1.4766 4.8906 0.94922 9.457 3.1445 13.246 6.375l10.059 1.207c0.61719 0.070312 1.2227 0.21875 1.8008 0.44141l7.8711-9.5742c2.1875-2.6211 6.082-2.9727 8.7031-0.78906 2.6211 2.1875 2.9727 6.082 0.78906 8.7031l-0.35156 0.42969 2.7266-1.3438c2-1.1523 4.4961-1.0078 6.3516 0.375 1.3086 1.0273 2.1328 2.5508 2.2812 4.207 0.21875 2.1172-0.84766 4.1562-2.7109 5.1758-2.2461 1.3008-4.3008 2.5273-6.2617 3.6992-12.461 7.4531-21.23 12.699-32.602 8.6797-3.6836-1.3008-7.1992-2.6172-10.418-3.8203-4.1406-1.5469-7.7773-2.9062-10.988-3.9336 0.14453 0.78125 0.34375 1.3789-0.19531 2.0938-0.28125 0.36719-0.69141 0.61719-1.1445 0.69922-1.9453 0.32422-11.637 1.0508-12.043-1.4805v0.003906c-0.5625-1.7695-1.2305-3.5-2-5.1875-1.9922-4.7695-4.4336-10.609-2.6992-11.637l11.699-6.9297v-0.003907c0.097656-0.058593 0.20703-0.097656 0.32031-0.12109 0.97656-0.20312 1.9297 0.42188 2.1367 1.3945 0.17188 0.9375 0.33984 1.875 0.51172 2.8086zm39.805 7.6016 7.6719-9.3242-0.003906-0.003906c1.4492-1.7578 4.0508-2.0117 5.8086-0.56641 1.7617 1.4492 2.0156 4.0469 0.56641 5.8086l-3.2891 4-8.6133 4.2422c-0.16406-1.6055-0.92969-3.0898-2.1406-4.1562zm-20.113-61.859c0.26953 0.49219 0.097656 1.1094-0.38672 1.3867s-1.1055 0.11719-1.3906-0.36328l-2.2695-3.9258c-0.28125-0.49219-0.11328-1.1211 0.37891-1.4023 0.48828-0.28125 1.1172-0.11328 1.3984 0.37891l2.2695 3.9297zm-9.0898 8.332c0.48047 0.28906 0.64453 0.90625 0.36328 1.3945-0.27734 0.48438-0.89453 0.65625-1.3828 0.38672l-3.9297-2.2695c-0.47266-0.28906-0.62891-0.90234-0.35156-1.3867 0.27734-0.48047 0.88672-0.65234 1.375-0.39062l3.9297 2.2695zm41.223 1.7812c-0.49219 0.28516-1.1211 0.11719-1.4062-0.375-0.28125-0.49219-0.11719-1.1211 0.375-1.4062l3.9297-2.2695v0.003906c0.49219-0.28516 1.1211-0.11719 1.4062 0.37109 0.28125 0.49219 0.11719 1.1211-0.375 1.4062zm-8.3359-9.0898c-0.28906 0.48047-0.90625 0.64062-1.3906 0.36328-0.48438-0.27734-0.66016-0.89453-0.38672-1.3867l2.2617-3.9258c0.28906-0.48047 0.90625-0.64453 1.3945-0.36328 0.48438 0.27734 0.65625 0.89453 0.38672 1.3828l-2.2695 3.9297zm-11.758-3.6992c-0.015625 0.55469-0.47266 1-1.0312 1-0.55469 0-1.0117-0.44531-1.0273-1v-4.5352c0.015625-0.55859 0.47266-1 1.0273-1 0.55859 0 1.0156 0.44141 1.0312 1zm-8.2773 49.086v3.1211h14.5v-3.1211zm16.559-0.14062c1.8555-0.51953 3.043-2.3281 2.7852-4.2383-0.26172-1.9141-1.8906-3.3398-3.8164-3.3438h-0.43359v-3.2812c4.875-2.3828 8.3984-6.8477 9.5859-12.141 1.1875-5.293-0.097656-10.84-3.4883-15.074-3.3906-4.2344-8.5195-6.6953-13.945-6.6953-5.4219 0-10.555 2.4609-13.941 6.6953-3.3906 4.2344-4.6758 9.7812-3.4883 15.074 1.1836 5.293 4.7109 9.7578 9.5859 12.141v3.2812h-0.43359c-1.9297 0-3.5625 1.4297-3.8242 3.3398-0.25781 1.9141 0.93359 3.7266 2.793 4.2422v4.2891c0 0.57031 0.46094 1.0312 1.0312 1.0312h1.7539c0.22656 1.3398 0.87891 2.5742 1.8633 3.5195 2.6016 2.4961 6.7148 2.4961 9.3164 0 0.98438-0.94531 1.6367-2.1797 1.8633-3.5195h1.7578c0.27344 0 0.53516-0.10938 0.73047-0.30078 0.19531-0.19531 0.30469-0.45703 0.30469-0.73047zm-4.8906 5.3203c-0.19922 0.78125-0.60938 1.4922-1.1914 2.0508-1.8125 1.7148-4.6445 1.7148-6.457 0-0.58203-0.55859-0.99609-1.2695-1.1914-2.0508zm1.3672-12.898-0.003906-3.9336c0-0.41016 0.24219-0.77734 0.61719-0.94141 4.4492-1.9727 7.7461-5.8828 8.9297-10.602 1.1875-4.7227 0.13281-9.7266-2.8555-13.566-2.9922-3.8398-7.5859-6.0898-12.453-6.0977-4.8672-0.007813-9.4648 2.2266-12.469 6.0586-3 3.832-4.0703 8.832-2.8984 13.555 1.1719 4.7266 4.4531 8.6484 8.8984 10.633 0.39844 0.15234 0.66016 0.53516 0.66016 0.96094v3.9336zm-14.066 5.6562c-0.99219 0-1.8008-0.80469-1.8008-1.8008 0-0.99219 0.80859-1.7969 1.8008-1.7969h16.559c0.99219 0 1.7969 0.80469 1.7969 1.7969 0 0.99609-0.80469 1.8008-1.7969 1.8008zm16.113-24.988c0-3.168-1.9102-6.0273-4.8359-7.2383-2.9297-1.2109-6.2969-0.54297-8.5391 1.6992-2.2383 2.2383-2.9102 5.6094-1.6953 8.5352 1.2109 2.9258 4.0664 4.8359 7.2383 4.8359 2.0742 0 4.0703-0.82422 5.5391-2.293s2.293-3.4648 2.293-5.5391zm-3.75-4.082h-0.003907c-1.6484-1.6523-4.1328-2.1484-6.293-1.2539-2.1562 0.89453-3.5625 3-3.5625 5.3359 0 2.3359 1.4062 4.4414 3.5625 5.332 2.1602 0.89453 4.6445 0.40234 6.293-1.25 1.0859-1.082 1.6953-2.5508 1.6953-4.082s-0.60938-3-1.6953-4.082zm-2.832-6.918h-2.5v1c0 0.47656-0.33203 0.89063-0.80078 1-0.98438 0.22656-1.9258 0.61328-2.7891 1.1406-0.41016 0.30469-0.97656 0.26172-1.3398-0.097657l-0.70703-0.70703-1.7734 1.7695 0.70703 0.71094h0.003907c0.33594 0.33984 0.39844 0.86719 0.14062 1.2734-0.53516 0.85547-0.92969 1.7969-1.1641 2.7773-0.078125 0.50391-0.51172 0.87891-1.0195 0.87891h-1v2.5039h1c0.47656 0.003907 0.89453 0.33594 1 0.80078 0.22656 0.98438 0.61328 1.9258 1.1406 2.7891 0.30469 0.41016 0.26172 0.98047-0.097656 1.3398l-0.70703 0.70703 1.7734 1.7695 0.71094-0.70312h-0.003906c0.33984-0.33984 0.86719-0.39844 1.2734-0.14453 0.85547 0.53906 1.793 0.93359 2.7734 1.1719 0.50391 0.074219 0.87891 0.50781 0.87891 1.0195v1h2.5v-1c0-0.48047 0.33203-0.89453 0.80078-1 0.98437-0.23047 1.9258-0.61719 2.7852-1.1445 0.41016-0.30078 0.98047-0.25781 1.3398 0.10156l0.70703 0.70703 1.7695-1.7695-0.69922-0.71094h0.003907c-0.33984-0.33984-0.39844-0.86719-0.14453-1.2734 0.53516-0.85938 0.92969-1.7969 1.1641-2.7812 0.078125-0.50391 0.51172-0.87891 1.0195-0.87891h1v-2.5039h-1c-0.47656 0-0.89453-0.33203-1-0.80078-0.22656-0.98438-0.61328-1.9258-1.1445-2.7852-0.30078-0.41016-0.25781-0.98047 0.10156-1.3398l0.70703-0.70703-1.7695-1.7695-0.71094 0.69922v-0.003906c-0.33984 0.33984-0.86719 0.39844-1.2734 0.14453-0.85938-0.53516-1.7969-0.92969-2.7773-1.168-0.50781-0.074219-0.87891-0.50781-0.87891-1.0156z"
          fill-rule="evenodd" fill="#fff"/>
</svg>