<svg xmlns="http://www.w3.org/2000/svg" version="1.1" viewBox="-5.0 -10.0 110.0 135.0" fill="#fff">
 <path d="m57.441 65.301h-9.1914c-0.67969 0-0.94141-0.60156-1.0508-1.2617h-22.059v1.6484c0 0.51172 0.53125 1.0312 1.0586 1.0312h45.449v-2.6719l-13.168 0.003906c-0.10938 0.64844-0.37109 1.25-1.0391 1.25z"/>
 <path d="m73.27 68.781c0 0.35156 0.28906 0.64062 0.64062 0.64062h12.789c0.35156 0 0.64062-0.28906 0.64062-0.64062v-1.3281l-14.07-0.003906z"/>
 <path d="m87.352 45.52c0-0.35156-0.28906-0.64062-0.64062-0.64062h-12.789c-0.35156 0-0.64062 0.28906-0.64062 0.64062v20.309h14.078v-20.309z"/>
 <path d="m75.469 33.059h-45.418c-1.4492 0-2.6406 1.1914-2.6406 2.6484v26.711h20.539c0.44141 0 0.80078 0.35156 0.80859 0.78906 0 0.17969 0.019532 0.33984 0.03125 0.46875h8.0781c0.019531-0.14062 0.03125-0.28906 0.03125-0.46875 0.011718-0.44141 0.37109-0.78906 0.80859-0.78906h13.922v-16.898c0-1.25 1.0117-2.2695 2.2695-2.2695h4.1992v-7.5391c0.023438-1.4492-1.1562-2.6523-2.6289-2.6523z"/>
 <path d="m89.828 80.309c-0.03125-0.17969-0.10938-0.35156-0.23828-0.46875-0.17969-0.16016-0.42969-0.23047-0.67188-0.19141l-10.449 1.6797c-0.44141 0.070313-0.75 0.48828-0.67188 0.92969 0.070313 0.44141 0.48828 0.75 0.92969 0.67188l8.2891-1.3398c-8.6406 9.8203-20.949 15.41-34.102 15.41-13.871 0-26.809-6.2188-35.488-17.051-0.28125-0.35156-0.78906-0.41016-1.1406-0.12891-0.35156 0.28125-0.41016 0.78906-0.12891 1.1406 8.9883 11.23 22.391 17.66 36.762 17.66 13.59 0 26.301-5.7617 35.25-15.879l-0.23047 8.25c-0.011719 0.44922 0.33984 0.82031 0.78906 0.83984h0.019532c0.44141 0 0.80078-0.35156 0.80859-0.78906l0.30078-10.578c0-0.019532-0.011719-0.039063-0.011719-0.058594 0.007812-0.027344-0.003906-0.054688-0.015625-0.097656z"/>
 <path d="m63.898 5.7812 7.6484-2.8516c0.42188-0.16016 0.64062-0.62891 0.48047-1.0508s-0.62891-0.64062-1.0508-0.48047l-9.9219 3.6992c-0.23047 0.078125-0.39844 0.26953-0.48047 0.5-0.078125 0.23047-0.050781 0.48047 0.070312 0.69141l5.4883 9.0508c0.14844 0.25 0.42188 0.39062 0.69922 0.39062 0.14062 0 0.28906-0.039063 0.42188-0.12109 0.37891-0.23047 0.51172-0.73047 0.26953-1.1211l-4.3711-7.2109c20.52 4.7227 35.219 23.074 35.219 44.293 0 5.1289-0.85156 10.148-2.5195 14.949-0.14844 0.42188 0.078126 0.89062 0.5 1.0391 0.089844 0.03125 0.17969 0.050781 0.26953 0.050781 0.33984 0 0.64844-0.21094 0.76953-0.55078 1.7305-4.9688 2.6094-10.18 2.6094-15.48 0-21.867-15.051-40.777-36.102-45.797z"/>
 <path d="m14.309 56.539c-0.39844-0.19922-0.89062-0.03125-1.0898 0.37109l-3.8398 7.75c-1.2695-4.2305-1.9219-8.6289-1.9219-13.09 0.011719-21.809 15.543-40.59 36.941-44.648 0.44141-0.078125 0.73047-0.51172 0.64844-0.94922-0.078125-0.44141-0.51172-0.73047-0.94922-0.64844-22.168 4.1953-38.258 23.656-38.258 46.246 0 4.4219 0.62109 8.7617 1.8203 12.961l-6.3516-4.8008c-0.35938-0.26953-0.87109-0.19922-1.1406 0.16016s-0.19922 0.87109 0.16016 1.1406l8.2305 6.2188c0.14844 0.21875 0.39844 0.35156 0.66016 0.35156 0.089844 0 0.17969-0.011718 0.26953-0.050781 0.078125-0.03125 0.14062-0.070312 0.19922-0.12109 0.12109-0.078126 0.23047-0.17969 0.30078-0.30859l4.6992-9.4883c0.19141-0.40234 0.03125-0.89453-0.37891-1.0938z"/>
</svg>