<svg xmlns="http://www.w3.org/2000/svg" fill="#fff" viewBox="0 0 24 30" x="0px" y="0px"><title>ui 15</title><g data-name="Layer 2"><path d="M13.29,9a.73.73,0,0,0,.56-.26l2-2.25A2.72,2.72,0,0,0,17,6.75a2.78,2.78,0,1,0-2.3-1.26l-2,2.26A.73.73,0,0,0,12.8,8.8.7.7,0,0,0,13.29,9ZM17,2.75A1.25,1.25,0,1,1,15.75,4,1.25,1.25,0,0,1,17,2.75Z"/><path d="M4,8.75a2.73,2.73,0,0,0,1.33-.36L6.87,9.94A3.75,3.75,0,0,0,10,15.75a3.51,3.51,0,0,0,.66-.07l1.28,3.2a2.25,2.25,0,1,0,1.56-.63l-.18,0-1.26-3.14A3.75,3.75,0,1,0,7.94,8.87L6.39,7.33A2.74,2.74,0,1,0,4,8.75ZM14.25,20.5a.75.75,0,1,1-.75-.75A.76.76,0,0,1,14.25,20.5Zm-2-8.5a2.26,2.26,0,0,1-1.39,2.08h0a2.22,2.22,0,0,1-.82.16,2.25,2.25,0,0,1-1.59-3.84h0A2.25,2.25,0,0,1,12.25,12ZM4,4.75A1.25,1.25,0,0,1,5.25,6a1.23,1.23,0,0,1-.36.87h0A1.23,1.23,0,0,1,4,7.25a1.25,1.25,0,0,1,0-2.5Z"/><path d="M20,9.25a2.75,2.75,0,0,0-2.63,2H15a.75.75,0,0,0,0,1.5h2.37A2.74,2.74,0,1,0,20,9.25Zm0,4A1.25,1.25,0,1,1,21.25,12,1.25,1.25,0,0,1,20,13.25Z"/><path d="M3.5,21.75a2.24,2.24,0,0,0,2-3.32l1.84-2.15a.75.75,0,1,0-1.14-1L4.36,17.42a2.25,2.25,0,1,0-.86,4.33Zm0-3A.72.72,0,0,1,4,19H4a.74.74,0,0,1,.21.52.75.75,0,1,1-.75-.75Z" /></g></svg>