<svg width="1152" height="357" viewBox="0 0 1152 357" fill="none" xmlns="http://www.w3.org/2000/svg">
<path d="M189.071 253.002C186.09 253.002 183.599 253.002 180.795 253.002C180.795 212.733 180.795 172.679 180.795 132.393C188.95 132.393 196.89 132.393 205.29 132.393C205.29 137.819 205.29 143.259 205.29 148.699C216.188 134.902 230.414 129.239 247.26 130.257C264.419 131.293 277.51 139.277 285.532 155.281C292.796 142.951 302.839 134.803 316.558 131.506C347.717 124.017 374.992 144.145 375.866 176.151C376.56 201.589 376.006 227.061 376.006 252.76C367.784 252.76 359.689 252.76 351.229 252.76C351.155 251.391 351.009 249.958 351.008 248.524C350.994 227.363 351.07 206.202 350.934 185.042C350.909 181.085 350.495 177.02 349.504 173.201C345.685 158.49 332.961 150.376 317.107 152.206C301.286 154.032 291.224 165.362 291.057 182.244C290.839 204.236 291.003 226.232 291.002 248.226C291.002 249.689 291.002 251.152 291.002 252.796C282.548 252.796 274.478 252.796 265.998 252.796C265.998 239.834 266.102 227.05 265.969 214.269C265.838 201.791 266.36 189.216 264.98 176.864C263.15 160.485 250.993 151.385 234.268 152.123C218.163 152.834 206.817 163.257 206.115 179.408C205.348 197.035 205.645 214.709 205.511 232.362C205.461 239.01 205.503 245.658 205.503 253.002C200.046 253.002 194.802 253.002 189.071 253.002Z" fill="white"/>
<path d="M461.546 130.383C477.146 131.893 488.723 139.365 497.876 152.515C497.876 145.276 497.876 139.033 497.876 132.472C506.442 132.472 514.676 132.472 523.221 132.472C523.221 172.555 523.221 212.626 523.221 252.852C514.896 252.852 506.767 252.852 498.27 252.852C498.27 246.116 498.27 239.365 498.27 232.631C497.625 232.583 497.162 232.448 497.094 232.557C478.844 262.119 439.355 260.244 418.122 239.776C393.197 215.749 392.857 169.496 417.71 145.477C429.794 133.797 444.509 129.278 461.546 130.383ZM489.116 165.421C472.509 145.252 442.051 148.381 429.915 171.517C424.992 180.904 424.348 190.873 425.982 201.147C428.619 217.73 441.514 230.686 457.532 232.805C472.999 234.851 488.376 225.975 494.464 210.522C500.571 195.021 499.531 179.901 489.116 165.421Z" fill="white"/>
<path d="M703.997 238.276C703.997 236.066 703.997 234.314 703.997 231.282C696.817 242.272 688.332 249.645 676.858 252.939C655.025 259.207 631.563 251.033 617.961 232.59C598.05 205.592 601.92 163.996 626.285 143.116C646.354 125.918 676.488 125.751 695.711 142.875C698.596 145.446 700.929 148.636 703.847 151.909C703.847 145.315 703.847 139.077 703.847 132.501C712.398 132.501 720.631 132.501 729.195 132.501C729.195 172.485 729.195 212.534 729.195 252.794C720.972 252.794 712.855 252.794 703.997 252.794C703.997 248.226 703.997 243.48 703.997 238.276ZM633.123 206.078C634.08 208.376 634.867 210.763 636.022 212.957C642.4 225.08 652.354 232.261 666.116 232.885C680.076 233.519 691.02 227.446 698.034 215.341C706.014 201.57 706.384 186.959 699.756 172.734C689.46 150.639 661.076 144.932 643.564 161.472C630.813 173.515 629.05 188.862 633.123 206.078Z" fill="white"/>
<path d="M8.71047 187.305C-2.20609 178.364 -2.72192 156.612 9.70485 143.829C26.3799 126.677 64.2641 125.32 81.8793 141.474C89.7981 148.736 93.4555 157.887 94.0631 168.821C85.5396 168.821 77.1485 168.821 69.4427 168.821C67.1661 164.39 65.7366 159.589 62.7364 156.164C55.1727 147.53 36.4205 148.12 28.7415 156.673C23.1461 162.904 23.7275 172.47 31.0883 176.47C37.5216 179.966 44.9321 181.749 52.0203 183.933C59.465 186.227 67.2022 187.645 74.5199 190.261C85.6803 194.252 93.6487 201.434 95.2361 214.047C96.9118 227.363 92.3525 238.028 81.4483 245.66C69.258 254.193 55.3381 255.931 40.9237 254.52C36.3233 254.07 31.6617 253.161 27.2858 251.694C10.844 246.181 1.92457 234.345 0.262207 216.247C8.7365 216.247 17.1937 216.247 25.9282 216.247C26.227 217.35 26.6104 218.593 26.8976 219.857C28.4239 226.575 32.4882 231.095 38.9163 233.377C46.2888 235.994 53.7345 235.613 60.8813 232.707C66.829 230.288 70.6788 225.907 70.8219 219.072C70.9593 212.511 67.2725 208.141 61.6263 206.173C53.3409 203.283 44.7214 201.354 36.2478 199.003C26.6699 196.345 16.7352 194.533 8.71047 187.305Z" fill="white"/>
<path d="M581.166 107.001C581.166 155.772 581.166 204.043 581.166 252.657C572.882 252.657 564.674 252.657 556.231 252.657C556.231 198.836 556.231 145.007 556.231 91.0137C564.526 91.0137 572.602 91.0137 581.166 91.0137C581.166 96.2868 581.166 101.394 581.166 107.001Z" fill="white"/>
<path d="M147.839 161C147.839 191.78 147.839 222.06 147.839 252.672C139.545 252.672 131.487 252.672 123.121 252.672C123.121 212.735 123.121 172.72 123.121 132.43C131.252 132.43 139.303 132.43 147.839 132.43C147.839 141.942 147.839 151.221 147.839 161Z" fill="white"/>
<path d="M851.651 264.649C851.854 265.29 851.899 266.239 851.875 267.414C851.701 266.746 851.598 265.851 851.651 264.649Z" fill="#048D97"/>
<path d="M851.671 278.435C851.886 278.495 851.925 278.721 851.891 279.128C851.604 279.134 851.496 278.898 851.671 278.435Z" fill="#048D97"/>
<path d="M49.8839 298.721L35.2774 339H26.8859L12.2532 298.721H20.6709L30.8719 329.717H31.2914L41.4662 298.721H49.8839ZM132.319 339.813C128.35 339.813 124.932 338.965 122.065 337.269C119.216 335.556 117.013 333.152 115.457 330.058C113.919 326.946 113.149 323.301 113.149 319.123C113.149 314.997 113.919 311.36 115.457 308.214C117.013 305.067 119.181 302.611 121.96 300.845C124.758 299.079 128.027 298.196 131.768 298.196C134.041 298.196 136.244 298.572 138.376 299.324C140.509 300.076 142.424 301.256 144.119 302.864C145.815 304.472 147.153 306.562 148.132 309.131C149.111 311.684 149.6 314.787 149.6 318.441V321.22H117.581V315.346H141.917C141.917 313.283 141.497 311.457 140.658 309.866C139.819 308.257 138.639 306.99 137.118 306.063C135.614 305.137 133.848 304.673 131.821 304.673C129.618 304.673 127.695 305.215 126.051 306.299C124.426 307.366 123.167 308.764 122.275 310.495C121.401 312.208 120.964 314.07 120.964 316.081V320.67C120.964 323.362 121.436 325.652 122.38 327.54C123.342 329.428 124.679 330.871 126.392 331.867C128.106 332.846 130.107 333.336 132.397 333.336C133.883 333.336 135.238 333.126 136.462 332.706C137.686 332.269 138.744 331.622 139.635 330.766C140.527 329.909 141.209 328.852 141.681 327.593L149.102 328.93C148.507 331.115 147.441 333.03 145.903 334.673C144.382 336.299 142.467 337.566 140.16 338.476C137.869 339.367 135.256 339.813 132.319 339.813ZM225.217 315.084V339H217.376V298.721H224.902V305.277H225.4C226.327 303.144 227.778 301.43 229.753 300.137C231.746 298.843 234.255 298.196 237.28 298.196C240.024 298.196 242.428 298.773 244.491 299.927C246.554 301.063 248.154 302.759 249.29 305.014C250.426 307.27 250.995 310.058 250.995 313.38V339H243.154V314.324C243.154 311.404 242.393 309.123 240.872 307.479C239.351 305.819 237.262 304.988 234.605 304.988C232.787 304.988 231.17 305.381 229.753 306.168C228.355 306.955 227.245 308.109 226.423 309.63C225.619 311.133 225.217 312.951 225.217 315.084ZM339.389 298.721V305.014H317.387V298.721H339.389ZM323.287 289.07H331.128V327.173C331.128 328.694 331.356 329.839 331.81 330.608C332.265 331.36 332.85 331.876 333.567 332.156C334.301 332.418 335.097 332.549 335.953 332.549C336.583 332.549 337.133 332.505 337.605 332.418C338.078 332.33 338.445 332.261 338.707 332.208L340.123 338.685C339.668 338.86 339.022 339.035 338.182 339.21C337.343 339.402 336.294 339.507 335.036 339.524C332.973 339.559 331.05 339.192 329.266 338.423C327.483 337.654 326.041 336.465 324.94 334.857C323.838 333.248 323.287 331.229 323.287 328.799V289.07ZM432.654 322.296V298.721H440.521V339H432.811V332.025H432.392C431.465 334.175 429.979 335.967 427.934 337.4C425.906 338.816 423.379 339.524 420.355 339.524C417.768 339.524 415.477 338.956 413.484 337.82C411.509 336.666 409.953 334.962 408.817 332.706C407.698 330.451 407.138 327.663 407.138 324.341V298.721H414.979V323.397C414.979 326.142 415.74 328.327 417.261 329.953C418.782 331.579 420.757 332.392 423.187 332.392C424.656 332.392 426.115 332.025 427.566 331.29C429.035 330.556 430.25 329.446 431.212 327.96C432.191 326.474 432.671 324.586 432.654 322.296ZM510.132 339V298.721H517.711V305.119H518.131C518.865 302.951 520.159 301.247 522.012 300.006C523.882 298.747 525.998 298.118 528.358 298.118C528.847 298.118 529.424 298.135 530.089 298.17C530.77 298.205 531.304 298.249 531.688 298.301V305.801C531.374 305.714 530.814 305.617 530.01 305.513C529.206 305.39 528.402 305.329 527.597 305.329C525.744 305.329 524.092 305.722 522.641 306.509C521.208 307.278 520.071 308.353 519.232 309.735C518.393 311.098 517.973 312.654 517.973 314.402V339H510.132ZM613.468 339.813C609.499 339.813 606.081 338.965 603.214 337.269C600.365 335.556 598.162 333.152 596.606 330.058C595.067 326.946 594.298 323.301 594.298 319.123C594.298 314.997 595.067 311.36 596.606 308.214C598.162 305.067 600.33 302.611 603.109 300.845C605.906 299.079 609.176 298.196 612.917 298.196C615.19 298.196 617.392 298.572 619.525 299.324C621.658 300.076 623.572 301.256 625.268 302.864C626.964 304.472 628.301 306.562 629.28 309.131C630.259 311.684 630.749 314.787 630.749 318.441V321.22H598.73V315.346H623.065C623.065 313.283 622.646 311.457 621.807 309.866C620.967 308.257 619.787 306.99 618.266 306.063C616.763 305.137 614.997 304.673 612.969 304.673C610.767 304.673 608.843 305.215 607.2 306.299C605.574 307.366 604.316 308.764 603.424 310.495C602.55 312.208 602.113 314.07 602.113 316.081V320.67C602.113 323.362 602.585 325.652 603.529 327.54C604.49 329.428 605.828 330.871 607.541 331.867C609.254 332.846 611.256 333.336 613.546 333.336C615.032 333.336 616.387 333.126 617.611 332.706C618.835 332.269 619.892 331.622 620.784 330.766C621.676 329.909 622.357 328.852 622.829 327.593L630.251 328.93C629.656 331.115 628.59 333.03 627.051 334.673C625.53 336.299 623.616 337.566 621.308 338.476C619.018 339.367 616.405 339.813 613.468 339.813ZM728.708 308.555L721.601 309.813C721.304 308.904 720.832 308.039 720.185 307.217C719.556 306.395 718.699 305.722 717.615 305.198C716.532 304.673 715.177 304.411 713.551 304.411C711.331 304.411 709.477 304.909 707.991 305.906C706.505 306.885 705.762 308.152 705.762 309.708C705.762 311.054 706.261 312.138 707.257 312.96C708.254 313.782 709.862 314.455 712.082 314.979L718.481 316.448C722.187 317.304 724.949 318.624 726.767 320.408C728.586 322.191 729.495 324.507 729.495 327.357C729.495 329.769 728.795 331.92 727.397 333.808C726.016 335.678 724.084 337.147 721.601 338.213C719.136 339.28 716.278 339.813 713.026 339.813C708.516 339.813 704.836 338.851 701.986 336.928C699.137 334.988 697.388 332.234 696.742 328.668L704.32 327.514C704.792 329.49 705.762 330.984 707.231 331.998C708.699 332.995 710.614 333.493 712.974 333.493C715.544 333.493 717.598 332.96 719.136 331.893C720.675 330.81 721.444 329.49 721.444 327.934C721.444 326.675 720.972 325.617 720.028 324.761C719.101 323.904 717.677 323.257 715.754 322.82L708.935 321.325C705.177 320.469 702.397 319.105 700.596 317.234C698.813 315.364 697.922 312.995 697.922 310.128C697.922 307.75 698.586 305.67 699.915 303.887C701.243 302.104 703.079 300.714 705.421 299.717C707.764 298.703 710.448 298.196 713.472 298.196C717.825 298.196 721.252 299.14 723.752 301.028C726.252 302.899 727.904 305.408 728.708 308.555Z" fill="white"/>
<path d="M851 118L994 0V217L851 280V118Z" fill="url(#paint0_linear_107_152)"/>
<path d="M1152 118L1009 0V217L1152 280V118Z" fill="url(#paint1_linear_107_152)"/>
<path d="M1001.5 231L867.5 289L998 325L1133 289L1001.5 231Z" fill="url(#paint2_linear_107_152)"/>
<path d="M117 86.8862L135.053 72V99.3754L117 107.323V86.8862Z" fill="url(#paint3_linear_107_152)"/>
<path d="M155 86.8862L136.947 72V99.3754L155 107.323V86.8862Z" fill="url(#paint4_linear_107_152)"/>
<path d="M136 101L119.083 108.458L135.558 113L152.601 108.458L136 101Z" fill="url(#paint5_linear_107_152)"/>
<defs>
<linearGradient id="paint0_linear_107_152" x1="1001.5" y1="0" x2="1001.5" y2="325" gradientUnits="userSpaceOnUse">
<stop stop-color="#02BF62"/>
<stop offset="1" stop-color="#0376AD"/>
</linearGradient>
<linearGradient id="paint1_linear_107_152" x1="1001.5" y1="0" x2="1001.5" y2="325" gradientUnits="userSpaceOnUse">
<stop stop-color="#02BF62"/>
<stop offset="1" stop-color="#0376AD"/>
</linearGradient>
<linearGradient id="paint2_linear_107_152" x1="1001.5" y1="0" x2="1001.5" y2="325" gradientUnits="userSpaceOnUse">
<stop stop-color="#02BF62"/>
<stop offset="1" stop-color="#0376AD"/>
</linearGradient>
<linearGradient id="paint3_linear_107_152" x1="136" y1="72" x2="136" y2="113" gradientUnits="userSpaceOnUse">
<stop stop-color="#02BF62"/>
<stop offset="1" stop-color="#0376AD"/>
</linearGradient>
<linearGradient id="paint4_linear_107_152" x1="136" y1="72" x2="136" y2="113" gradientUnits="userSpaceOnUse">
<stop stop-color="#02BF62"/>
<stop offset="1" stop-color="#0376AD"/>
</linearGradient>
<linearGradient id="paint5_linear_107_152" x1="136" y1="72" x2="136" y2="113" gradientUnits="userSpaceOnUse">
<stop stop-color="#02BF62"/>
<stop offset="1" stop-color="#0376AD"/>
</linearGradient>
</defs>
</svg>
