<svg xmlns="http://www.w3.org/2000/svg" data-name="Layer 1" viewBox="0 0 90 112.5" x="0px" y="0px"><path d="M88.389,2.02A1.583,1.583,0,0,0,87.2,1.544c-16.557.536-30.43,4.809-41.232,12.7a57.722,57.722,0,0,0-8.247,7.345L15.5,21.643a4.577,4.577,0,0,0-3.808,1.97L2.036,37.19a4.687,4.687,0,0,0,3.471,7.391L23.3,45.909q-.564,1.545-1.087,3.14a1.585,1.585,0,0,0,.4,1.628l17.125,16.63a1.59,1.59,0,0,0,1.6.369q1.6-.523,3.144-1.1l1.308,17.53a4.635,4.635,0,0,0,2.682,3.895,4.7,4.7,0,0,0,2,.452,4.655,4.655,0,0,0,2.707-.876l13.576-9.66a4.574,4.574,0,0,0,1.97-3.807l.055-22.233A58.515,58.515,0,0,0,75.553,44.2c7.884-10.71,12.354-24.5,13.284-40.986A1.582,1.582,0,0,0,88.389,2.02ZM5.743,41.42a1.517,1.517,0,0,1-1.125-2.393L14.279,25.45a1.425,1.425,0,0,1,1.232-.638l19.461-.047A71.8,71.8,0,0,0,24.493,42.82ZM65.556,74.106a1.428,1.428,0,0,1-.638,1.233L51.341,85a1.517,1.517,0,0,1-2.393-1.124l-1.381-18.5A70.208,70.208,0,0,0,65.6,54.7Zm-24.3-9.744L25.533,49.1q5.025-14.9,13.83-24.732a1.573,1.573,0,0,0,.258-.288C50.49,12.111,65.707,5.748,85.56,4.782,83.344,35.1,68.446,55.134,41.255,64.362ZM8.638,68.437a1.585,1.585,0,0,1-1.12-2.7l9.68-9.68a1.585,1.585,0,0,1,2.241,2.241l-9.68,9.68A1.581,1.581,0,0,1,8.638,68.437Zm17.874-3.07L7.835,84.044A1.585,1.585,0,0,1,5.594,81.8L24.271,63.126a1.585,1.585,0,1,1,2.241,2.241ZM33.958,70.2a1.584,1.584,0,0,1,0,2.241L24.279,82.12a1.585,1.585,0,1,1-2.241-2.241L31.717,70.2A1.584,1.584,0,0,1,33.958,70.2Zm31.7-37.193A8.162,8.162,0,1,0,57.5,24.845,8.172,8.172,0,0,0,65.662,33.007Zm0-13.155a4.993,4.993,0,1,1-4.993,4.993A5,5,0,0,1,65.662,19.852Z" fill="#fff"/></svg>